<svg width="131" height="133" viewBox="0 0 131 133" fill="none" xmlns="http://www.w3.org/2000/svg">
<path d="M34.6742 66.784C34.6742 66.5774 34.6742 66.3707 34.6742 66.1482H13.4565V67.4038H34.6901C34.6901 67.1972 34.6901 66.9906 34.6901 66.7681L34.6742 66.784Z" fill="#86E4C5" fill-opacity="0.3"/>
<path d="M44.1617 44.5491L29.1425 29.5298L28.6975 29.9748L28.2524 30.4198L43.2717 45.4391C43.5578 45.1371 43.8598 44.8351 44.1617 44.5491Z" fill="#86E4C5" fill-opacity="0.3"/>
<path d="M37.2646 54.4032L17.6521 46.2817L17.4137 46.8697L17.1753 47.4578L36.7878 55.5793C36.9467 55.182 37.1056 54.8005 37.2646 54.4191V54.4032Z" fill="#86E4C5" fill-opacity="0.3"/>
<path d="M65.4918 35.9234C65.6924 35.9234 65.893 35.9234 66.1089 35.9403V13.2705H64.8901V35.9403C65.0907 35.9403 65.2913 35.9234 65.5072 35.9234H65.4918Z" fill="#86E4C5" fill-opacity="0.3"/>
<path d="M94.2107 55.5634L113.823 47.4419L113.346 46.2817L93.7339 54.4032C93.9087 54.7846 94.0677 55.182 94.2107 55.5634Z" fill="#86E4C5" fill-opacity="0.3"/>
<path d="M77.8734 38.5414L85.9949 18.929L85.4068 18.6906L84.8188 18.4522L76.6973 38.0646C77.0946 38.2236 77.476 38.3825 77.8575 38.5414H77.8734Z" fill="#86E4C5" fill-opacity="0.3"/>
<path d="M87.726 45.4391L102.745 30.4198L101.855 29.5298L86.8359 44.5491C87.1379 44.8351 87.4399 45.1371 87.726 45.4391Z" fill="#86E4C5" fill-opacity="0.3"/>
<path d="M54.2861 38.0646L46.1646 18.4522L45.0044 18.929L53.1259 38.5414C53.5074 38.3666 53.9047 38.2077 54.2861 38.0646Z" fill="#86E4C5" fill-opacity="0.3"/>
<path d="M36.7878 77.9888L17.1753 86.1103L17.4137 86.6984L17.6521 87.2864L37.2646 79.1649C37.0897 78.7834 36.9308 78.3861 36.7878 78.0047V77.9888Z" fill="#86E4C5" fill-opacity="0.3"/>
<path d="M76.7124 95.4876L84.8339 115.1L85.422 114.862L86.01 114.623L77.8885 95.0108C77.5071 95.1856 77.1097 95.3446 76.7283 95.4876H76.7124Z" fill="#86E4C5" fill-opacity="0.3"/>
<path d="M86.8359 89.0031L101.855 104.022L102.745 103.132L87.726 88.1131C87.4399 88.415 87.1379 88.717 86.8359 89.0031Z" fill="#86E4C5" fill-opacity="0.3"/>
<path d="M96.3086 66.1482C96.3086 66.3549 96.3245 66.5615 96.3245 66.784C96.3245 67.0065 96.3245 67.1972 96.3086 67.4197H117.542V66.1641H96.3086V66.1482Z" fill="#86E4C5" fill-opacity="0.3"/>
<path d="M93.7339 79.149L113.346 87.2705L113.823 86.1103L94.2107 77.9888C94.0518 78.3861 93.8928 78.7675 93.7339 79.149Z" fill="#86E4C5" fill-opacity="0.3"/>
<path d="M43.2717 88.1131L28.2524 103.132L28.6975 103.577L29.1425 104.022L44.1617 89.0031C43.8598 88.717 43.5578 88.415 43.2717 88.1131Z" fill="#86E4C5" fill-opacity="0.3"/>
<path d="M65.5078 97.6015C65.3012 97.6015 65.0946 97.6015 64.8721 97.5856V118.819H66.1277V97.5856C65.921 97.5856 65.7144 97.6015 65.4919 97.6015H65.5078Z" fill="#86E4C5" fill-opacity="0.3"/>
<path d="M53.1259 95.0108L45.0044 114.623L46.1646 115.1L54.2861 95.4876C53.8888 95.3287 53.5074 95.1698 53.1259 95.0108Z" fill="#86E4C5" fill-opacity="0.3"/>
<path d="M34.8538 62.6427C34.8815 62.438 34.9092 62.2332 34.939 62.0127L13.9131 59.1668L13.7447 60.411L34.7864 63.2591C34.8141 63.0543 34.8418 62.8496 34.8717 62.6291L34.8538 62.6427Z" fill="#86E4C5" fill-opacity="0.3"/>
<path d="M47.2378 41.8812L34.3688 24.9831L33.8681 25.3645L33.3674 25.7458L46.2364 42.6438C46.5604 42.383 46.9002 42.1242 47.2378 41.8812Z" fill="#86E4C5" fill-opacity="0.3"/>
<path d="M39.0816 50.7211L20.7357 40.0423L20.4206 40.5931L20.1054 41.1439L38.4513 51.8226C38.6621 51.4502 38.8708 51.0935 39.0794 50.7369L39.0816 50.7211Z" fill="#86E4C5" fill-opacity="0.3"/>
<path d="M69.5324 36.1946C69.7312 36.2215 69.9299 36.2484 70.1417 36.2942L73.1824 13.8292L71.9746 13.6657L68.9339 36.1307C69.1327 36.1576 69.3337 36.1677 69.5477 36.1966L69.5324 36.1946Z" fill="#86E4C5" fill-opacity="0.3"/>
<path d="M95.3579 59.5094L115.882 54.0919L115.566 52.8782L95.041 58.2957C95.1631 58.6971 95.2673 59.1122 95.3579 59.5094Z" fill="#86E4C5" fill-opacity="0.3"/>
<path d="M81.4509 40.4497L92.1296 22.1039L91.5789 21.7887L91.0281 21.4736L80.3494 39.8195C80.7218 40.0303 81.0785 40.2389 81.4351 40.4476L81.4509 40.4497Z" fill="#86E4C5" fill-opacity="0.3"/>
<path d="M90.2896 48.6066L107.188 35.7376L106.425 34.7362L89.527 47.6052C89.7878 47.9292 90.0466 48.269 90.2896 48.6066Z" fill="#86E4C5" fill-opacity="0.3"/>
<path d="M58.1405 36.8134L52.723 16.2888L51.5093 16.6057L56.9268 37.1303C57.3282 37.0082 57.7433 36.904 58.1405 36.8134Z" fill="#86E4C5" fill-opacity="0.3"/>
<path d="M35.445 74.0297L14.9204 79.4472L15.0778 80.062L15.2352 80.6767L35.7597 75.2592C35.6377 74.8577 35.5335 74.4427 35.4429 74.0455L35.445 74.0297Z" fill="#86E4C5" fill-opacity="0.3"/>
<path d="M72.6621 96.7255L78.0796 117.25L78.6944 117.093L79.3091 116.935L73.8916 96.4107C73.4901 96.5328 73.0751 96.637 72.6779 96.7276L72.6621 96.7255Z" fill="#86E4C5" fill-opacity="0.3"/>
<path d="M83.5642 91.6575L96.4332 108.556L97.4346 107.793L84.5656 90.8949C84.2416 91.1558 83.9018 91.4145 83.5642 91.6575Z" fill="#86E4C5" fill-opacity="0.3"/>
<path d="M96.0166 70.2797C95.9889 70.4845 95.9769 70.6913 95.9471 70.9118C95.9172 71.1323 95.8917 71.3213 95.8461 71.5397L116.888 74.3878L117.056 73.1435L96.0145 70.2955L96.0166 70.2797Z" fill="#86E4C5" fill-opacity="0.3"/>
<path d="M91.7218 82.8177L110.068 93.4965L110.696 92.4107L92.3499 81.7319C92.1391 82.1043 91.9305 82.461 91.7218 82.8177Z" fill="#86E4C5" fill-opacity="0.3"/>
<path d="M40.5125 84.9321L23.6144 97.8012L23.9957 98.3018L24.377 98.8025L41.2751 85.9335C41.0142 85.6095 40.7554 85.2698 40.5125 84.9321Z" fill="#86E4C5" fill-opacity="0.3"/>
<path d="M61.2748 97.3173C61.0701 97.2896 60.8653 97.2619 60.647 97.2163L57.7989 118.258L59.0431 118.426L61.8912 97.3847C61.6865 97.357 61.4796 97.345 61.2591 97.3152L61.2748 97.3173Z" fill="#86E4C5" fill-opacity="0.3"/>
<path d="M49.3523 93.0893L38.6736 111.435L39.7594 112.063L50.4381 93.7174C50.0657 93.5066 49.709 93.298 49.3523 93.0893Z" fill="#86E4C5" fill-opacity="0.3"/>
<path d="M35.5061 58.8974C35.5588 58.6976 35.6115 58.4978 35.6683 58.2827L15.1523 52.8709L14.8321 54.085L35.3634 59.5008C35.4161 59.301 35.4688 59.1012 35.5255 58.8861L35.5061 58.8974Z" fill="#86E4C5" fill-opacity="0.3"/>
<path d="M50.3507 39.8177L39.6589 21.4644L39.1151 21.7812L38.5713 22.098L49.2631 40.4513C49.6167 40.2323 49.9857 40.0173 50.3507 39.8177Z" fill="#86E4C5" fill-opacity="0.3"/>
<path d="M41.1683 47.5866L24.276 34.7314L23.8955 35.2392L23.515 35.747L40.4073 48.6023C40.6623 48.2586 40.9133 47.9303 41.1642 47.602L41.1683 47.5866Z" fill="#86E4C5" fill-opacity="0.3"/>
<path d="M73.1756 36.9178C73.3695 36.9689 73.5635 37.0201 73.768 37.0916L79.5501 15.1716L78.3716 14.8607L72.5895 36.7807C72.7834 36.8319 72.9817 36.8666 73.1905 36.9217L73.1756 36.9178Z" fill="#86E4C5" fill-opacity="0.3"/>
<path d="M95.9355 63.2332L116.971 60.3826L116.806 59.1391L95.7703 61.9897C95.8421 62.4031 95.8944 62.8279 95.9355 63.2332Z" fill="#86E4C5" fill-opacity="0.3"/>
<path d="M84.4801 42.6073L97.3353 25.715L96.8275 25.3345L96.3197 24.954L83.4645 41.8463C83.8081 42.1013 84.1364 42.3523 84.4647 42.6033L84.4801 42.6073Z" fill="#86E4C5" fill-opacity="0.3"/>
<path d="M92.2476 51.7898L110.601 41.0981L109.967 40.0105L91.614 50.7022C91.8331 51.0558 92.048 51.4249 92.2476 51.7898Z" fill="#86E4C5" fill-opacity="0.3"/>
<path d="M61.7942 36.1301L58.9436 15.0948L57.7002 15.2599L60.5508 36.2952C60.9642 36.2234 61.3889 36.1711 61.7942 36.1301Z" fill="#86E4C5" fill-opacity="0.3"/>
<path d="M34.6913 70.2707L13.6561 73.1213L13.7366 73.7507L13.8171 74.3801L34.8524 71.5295C34.7806 71.1161 34.7283 70.6914 34.6873 70.286L34.6913 70.2707Z" fill="#86E4C5" fill-opacity="0.3"/>
<path d="M68.833 97.3739L71.6836 118.409L72.313 118.329L72.9424 118.248L70.0918 97.2128C69.6784 97.2846 69.2537 97.3369 68.8483 97.3779L68.833 97.3739Z" fill="#86E4C5" fill-opacity="0.3"/>
<path d="M80.2754 93.6859L90.9672 112.039L92.0548 111.406L81.363 93.0523C81.0094 93.2713 80.6404 93.4863 80.2754 93.6859Z" fill="#86E4C5" fill-opacity="0.3"/>
<path d="M95.2637 74.003C95.211 74.2028 95.1736 74.4066 95.1169 74.6218C95.0601 74.8369 95.0115 75.0214 94.9394 75.2325L115.471 80.6482L115.791 79.4342L95.2596 74.0184L95.2637 74.003Z" fill="#86E4C5" fill-opacity="0.3"/>
<path d="M89.459 85.9172L106.351 98.7724L107.108 97.7722L90.2159 84.917C89.9609 85.2606 89.7099 85.5889 89.459 85.9172Z" fill="#86E4C5" fill-opacity="0.3"/>
<path d="M38.379 81.7138L20.0257 92.4056L20.3425 92.9494L20.6592 93.4932L39.0125 82.8014C38.7935 82.4478 38.5786 82.0788 38.379 81.7138Z" fill="#86E4C5" fill-opacity="0.3"/>
<path d="M57.4593 96.5599C57.2595 96.5072 57.0597 96.4545 56.8486 96.3824L51.4328 116.914L52.6469 117.234L58.0627 96.7026C57.8629 96.6499 57.6591 96.6126 57.4439 96.5558L57.4593 96.5599Z" fill="#86E4C5" fill-opacity="0.3"/>
<path d="M46.1478 90.8968L33.2926 107.789L34.2928 108.546L47.1481 91.6538C46.8044 91.3987 46.4761 91.1478 46.1478 90.8968Z" fill="#86E4C5" fill-opacity="0.3"/>
</svg>
