<svg width="131" height="133" viewBox="0 0 131 133" fill="none" xmlns="http://www.w3.org/2000/svg">
<path d="M34.6744 66.784C34.6744 66.5773 34.6744 66.3707 34.6744 66.1482H13.4567V67.4038H34.6902C34.6902 67.1972 34.6902 66.9906 34.6902 66.7681L34.6744 66.784Z" fill="#FDC3AE" fill-opacity="0.5"/>
<path d="M44.1616 44.5491L29.1423 29.5298L28.6973 29.9748L28.2523 30.4198L43.2716 45.4391C43.5577 45.1371 43.8596 44.8351 44.1616 44.5491Z" fill="#FDC3AE" fill-opacity="0.5"/>
<path d="M37.2644 54.4032L17.652 46.2817L17.4136 46.8697L17.1752 47.4578L36.7876 55.5793C36.9466 55.182 37.1055 54.8005 37.2644 54.4191V54.4032Z" fill="#FDC3AE" fill-opacity="0.5"/>
<path d="M65.4919 35.9234C65.6925 35.9234 65.8931 35.9234 66.1091 35.9403V13.2705H64.8903V35.9403C65.0908 35.9403 65.2914 35.9234 65.5074 35.9234H65.4919Z" fill="#FDC3AE" fill-opacity="0.5"/>
<path d="M94.2111 55.5634L113.824 47.4419L113.347 46.2817L93.7343 54.4032C93.9091 54.7846 94.068 55.182 94.2111 55.5634Z" fill="#FDC3AE" fill-opacity="0.5"/>
<path d="M77.8737 38.5414L85.9953 18.929L85.4072 18.6906L84.8192 18.4522L76.6976 38.0646C77.095 38.2236 77.4764 38.3825 77.8578 38.5414H77.8737Z" fill="#FDC3AE" fill-opacity="0.5"/>
<path d="M87.7263 45.4391L102.746 30.4198L101.856 29.5298L86.8363 44.5491C87.1383 44.8351 87.4403 45.1371 87.7263 45.4391Z" fill="#FDC3AE" fill-opacity="0.5"/>
<path d="M54.286 38.0646L46.1645 18.4522L45.0043 18.929L53.1258 38.5414C53.5072 38.3666 53.9046 38.2077 54.286 38.0646Z" fill="#FDC3AE" fill-opacity="0.5"/>
<path d="M36.7876 77.9888L17.1752 86.1103L17.4136 86.6984L17.652 87.2864L37.2644 79.1649C37.0896 78.7834 36.9307 78.3861 36.7876 78.0047V77.9888Z" fill="#FDC3AE" fill-opacity="0.5"/>
<path d="M76.7126 95.4876L84.8342 115.1L85.4222 114.862L86.0103 114.623L77.8888 95.0108C77.5073 95.1856 77.11 95.3446 76.7285 95.4876H76.7126Z" fill="#FDC3AE" fill-opacity="0.5"/>
<path d="M86.8363 89.0031L101.856 104.022L102.746 103.132L87.7263 88.1131C87.4403 88.415 87.1383 88.717 86.8363 89.0031Z" fill="#FDC3AE" fill-opacity="0.5"/>
<path d="M96.3086 66.1482C96.3086 66.3548 96.3245 66.5615 96.3245 66.784C96.3245 67.0065 96.3245 67.1972 96.3086 67.4197H117.542V66.1641H96.3086V66.1482Z" fill="#FDC3AE" fill-opacity="0.5"/>
<path d="M93.7343 79.149L113.347 87.2705L113.824 86.1103L94.2111 77.9888C94.0521 78.3861 93.8932 78.7675 93.7343 79.149Z" fill="#FDC3AE" fill-opacity="0.5"/>
<path d="M43.2716 88.1131L28.2523 103.132L28.6973 103.577L29.1423 104.022L44.1616 89.0031C43.8596 88.717 43.5577 88.415 43.2716 88.1131Z" fill="#FDC3AE" fill-opacity="0.5"/>
<path d="M65.5078 97.6015C65.3012 97.6015 65.0946 97.6015 64.8721 97.5856V118.819H66.1277V97.5856C65.921 97.5856 65.7144 97.6015 65.4919 97.6015H65.5078Z" fill="#FDC3AE" fill-opacity="0.5"/>
<path d="M53.1258 95.0108L45.0043 114.623L46.1645 115.1L54.286 95.4876C53.8887 95.3287 53.5072 95.1697 53.1258 95.0108Z" fill="#FDC3AE" fill-opacity="0.5"/>
<path d="M34.854 62.6427C34.8817 62.4379 34.9094 62.2332 34.9393 62.0127L13.9133 59.1668L13.7449 60.411L34.7866 63.2591C34.8143 63.0543 34.8421 62.8496 34.8719 62.6291L34.854 62.6427Z" fill="#FDC3AE" fill-opacity="0.5"/>
<path d="M47.2379 41.8812L34.3689 24.9831L33.8682 25.3645L33.3676 25.7458L46.2366 42.6438C46.5606 42.383 46.9003 42.1242 47.2379 41.8812Z" fill="#FDC3AE" fill-opacity="0.5"/>
<path d="M39.0814 50.7211L20.7356 40.0423L20.4204 40.5931L20.1053 41.1439L38.4512 51.8226C38.662 51.4502 38.8707 51.0935 39.0793 50.7369L39.0814 50.7211Z" fill="#FDC3AE" fill-opacity="0.5"/>
<path d="M69.5324 36.1946C69.7312 36.2215 69.9299 36.2484 70.1417 36.2942L73.1824 13.8292L71.9746 13.6657L68.9339 36.1307C69.1327 36.1576 69.3337 36.1677 69.5477 36.1966L69.5324 36.1946Z" fill="#FDC3AE" fill-opacity="0.5"/>
<path d="M95.3578 59.5094L115.882 54.0919L115.565 52.8782L95.0409 58.2957C95.163 58.6971 95.2672 59.1122 95.3578 59.5094Z" fill="#FDC3AE" fill-opacity="0.5"/>
<path d="M81.4511 40.4497L92.1299 22.1039L91.5791 21.7887L91.0284 21.4736L80.3496 39.8195C80.722 40.0303 81.0787 40.2389 81.4354 40.4476L81.4511 40.4497Z" fill="#FDC3AE" fill-opacity="0.5"/>
<path d="M90.2897 48.6066L107.188 35.7376L106.425 34.7362L89.5271 47.6052C89.788 47.9292 90.0467 48.269 90.2897 48.6066Z" fill="#FDC3AE" fill-opacity="0.5"/>
<path d="M58.1406 36.8134L52.7231 16.2888L51.5094 16.6057L56.9269 37.1303C57.3284 37.0082 57.7434 36.904 58.1406 36.8134Z" fill="#FDC3AE" fill-opacity="0.5"/>
<path d="M35.4454 74.0297L14.9208 79.4472L15.0782 80.0619L15.2355 80.6767L35.7601 75.2592C35.638 74.8577 35.5338 74.4427 35.4432 74.0455L35.4454 74.0297Z" fill="#FDC3AE" fill-opacity="0.5"/>
<path d="M72.6625 96.7255L78.08 117.25L78.6947 117.093L79.3094 116.935L73.8919 96.4107C73.4905 96.5328 73.0754 96.637 72.6782 96.7276L72.6625 96.7255Z" fill="#FDC3AE" fill-opacity="0.5"/>
<path d="M83.5643 91.6575L96.4333 108.556L97.4347 107.793L84.5657 90.8949C84.2417 91.1558 83.902 91.4145 83.5643 91.6575Z" fill="#FDC3AE" fill-opacity="0.5"/>
<path d="M96.0166 70.2797C95.9889 70.4845 95.9769 70.6913 95.9471 70.9118C95.9172 71.1323 95.8917 71.3213 95.8461 71.5397L116.888 74.3878L117.056 73.1435L96.0145 70.2955L96.0166 70.2797Z" fill="#FDC3AE" fill-opacity="0.5"/>
<path d="M91.7217 82.8177L110.068 93.4965L110.696 92.4107L92.3498 81.7319C92.139 82.1043 91.9304 82.461 91.7217 82.8177Z" fill="#FDC3AE" fill-opacity="0.5"/>
<path d="M40.5127 84.9321L23.6146 97.8012L23.9959 98.3018L24.3772 98.8025L41.2753 85.9335C41.0144 85.6095 40.7557 85.2698 40.5127 84.9321Z" fill="#FDC3AE" fill-opacity="0.5"/>
<path d="M61.2752 97.3173C61.0705 97.2896 60.8657 97.2619 60.6473 97.2163L57.7993 118.258L59.0435 118.426L61.8916 97.3847C61.6868 97.357 61.48 97.345 61.2595 97.3152L61.2752 97.3173Z" fill="#FDC3AE" fill-opacity="0.5"/>
<path d="M49.3527 93.0893L38.6739 111.435L39.7597 112.063L50.4385 93.7174C50.0661 93.5066 49.7094 93.298 49.3527 93.0893Z" fill="#FDC3AE" fill-opacity="0.5"/>
<path d="M35.5059 58.8974C35.5586 58.6976 35.6113 58.4978 35.668 58.2827L15.1521 52.8709L14.8319 54.085L35.3632 59.5008C35.4158 59.301 35.4685 59.1012 35.5253 58.8861L35.5059 58.8974Z" fill="#FDC3AE" fill-opacity="0.5"/>
<path d="M50.3505 39.8177L39.6588 21.4644L39.115 21.7812L38.5712 22.098L49.2629 40.4513C49.6166 40.2323 49.9856 40.0173 50.3505 39.8177Z" fill="#FDC3AE" fill-opacity="0.5"/>
<path d="M41.1682 47.5866L24.2759 34.7314L23.8953 35.2392L23.5148 35.747L40.4072 48.6022C40.6622 48.2586 40.9132 47.9303 41.1641 47.602L41.1682 47.5866Z" fill="#FDC3AE" fill-opacity="0.5"/>
<path d="M73.1753 36.9178C73.3693 36.9689 73.5632 37.0201 73.7677 37.0916L79.5498 15.1716L78.3713 14.8607L72.5892 36.7807C72.7832 36.8319 72.9814 36.8666 73.1903 36.9217L73.1753 36.9178Z" fill="#FDC3AE" fill-opacity="0.5"/>
<path d="M95.9353 63.2332L116.971 60.3826L116.805 59.1391L95.7702 61.9897C95.842 62.4031 95.8943 62.8279 95.9353 63.2332Z" fill="#FDC3AE" fill-opacity="0.5"/>
<path d="M84.4798 42.6073L97.3351 25.715L96.8273 25.3345L96.3195 24.954L83.4642 41.8463C83.8079 42.1013 84.1362 42.3523 84.4645 42.6033L84.4798 42.6073Z" fill="#FDC3AE" fill-opacity="0.5"/>
<path d="M92.2474 51.7898L110.601 41.0981L109.967 40.0105L91.6138 50.7022C91.8328 51.0558 92.0478 51.4249 92.2474 51.7898Z" fill="#FDC3AE" fill-opacity="0.5"/>
<path d="M61.794 36.1301L58.9434 15.0948L57.6999 15.2599L60.5505 36.2952C60.9639 36.2234 61.3887 36.1711 61.794 36.1301Z" fill="#FDC3AE" fill-opacity="0.5"/>
<path d="M34.6915 70.2707L13.6562 73.1213L13.7367 73.7507L13.8173 74.3801L34.8525 71.5295C34.7807 71.1161 34.7284 70.6913 34.6874 70.286L34.6915 70.2707Z" fill="#FDC3AE" fill-opacity="0.5"/>
<path d="M68.8327 97.3738L71.6833 118.409L72.3127 118.329L72.9422 118.248L70.0916 97.2128C69.6781 97.2845 69.2534 97.3369 68.8481 97.3779L68.8327 97.3738Z" fill="#FDC3AE" fill-opacity="0.5"/>
<path d="M80.2754 93.6859L90.9672 112.039L92.0548 111.406L81.363 93.0523C81.0094 93.2713 80.6404 93.4863 80.2754 93.6859Z" fill="#FDC3AE" fill-opacity="0.5"/>
<path d="M95.2638 74.003C95.2111 74.2028 95.1738 74.4066 95.117 74.6218C95.0603 74.8369 95.0116 75.0214 94.9395 75.2324L115.471 80.6482L115.791 79.4342L95.2597 74.0184L95.2638 74.003Z" fill="#FDC3AE" fill-opacity="0.5"/>
<path d="M89.4586 85.9172L106.351 98.7724L107.108 97.7722L90.2156 84.917C89.9605 85.2606 89.7096 85.5889 89.4586 85.9172Z" fill="#FDC3AE" fill-opacity="0.5"/>
<path d="M38.3786 81.7138L20.0253 92.4056L20.3421 92.9494L20.6589 93.4932L39.0122 82.8014C38.7932 82.4478 38.5782 82.0788 38.3786 81.7138Z" fill="#FDC3AE" fill-opacity="0.5"/>
<path d="M57.4593 96.5599C57.2595 96.5072 57.0597 96.4545 56.8486 96.3824L51.4328 116.914L52.6469 117.234L58.0627 96.7026C57.8629 96.6499 57.6591 96.6126 57.4439 96.5558L57.4593 96.5599Z" fill="#FDC3AE" fill-opacity="0.5"/>
<path d="M46.1476 90.8968L33.2924 107.789L34.2926 108.546L47.1478 91.6538C46.8042 91.3987 46.4759 91.1478 46.1476 90.8968Z" fill="#FDC3AE" fill-opacity="0.5"/>
</svg>
