<svg width="40" height="40" viewBox="0 0 40 40" fill="none" xmlns="http://www.w3.org/2000/svg">
<g clip-path="url(#clip0_1589_24)">
<path d="M19.6437 39.2875C30.4863 39.2875 39.2875 30.4863 39.2875 19.6437C39.2875 8.80116 30.4863 0 19.6437 0C8.80116 0 0 8.80116 0 19.6437C0 30.4863 8.80116 39.2875 19.6437 39.2875ZM19.6437 36.0135C10.5922 36.0135 3.27396 28.6953 3.27396 19.6437C3.27396 10.5922 10.5922 3.27396 19.6437 3.27396C28.6953 3.27396 36.0135 10.5922 36.0135 19.6437C36.0135 28.6953 28.6953 36.0135 19.6437 36.0135Z" fill="white" fill-opacity="0.85"/>
<path d="M16.0426 27.1738L27.0007 20.6837C27.8096 20.2215 27.7903 19.1045 27.0007 18.623L16.0426 12.1329C15.2144 11.6514 14.1167 12.0173 14.1167 12.961V26.3458C14.1167 27.2701 15.1374 27.713 16.0426 27.1738Z" fill="white" fill-opacity="0.85"/>
</g>
<defs>
<clipPath id="clip0_1589_24">
<rect width="40" height="39.3066" fill="white"/>
</clipPath>
</defs>
</svg>
