<svg width="1062" height="279" viewBox="0 0 1062 279" fill="none" xmlns="http://www.w3.org/2000/svg"> 
<path d="M1056.29 186.3L1057.49 192.3L1015.79 220.8L992.992 198L961.192 220.8C948.892 219.3 937.192 213.3 929.392 203.7C923.692 197.1 920.392 188.4 920.992 179.7C921.292 174 923.092 168.6 926.092 163.5C929.092 158.7 932.992 154.5 937.192 150.9C943.192 145.5 949.792 141.3 956.692 137.4C955.192 136.8 953.692 136.2 952.192 135.6C945.592 132.3 938.992 127.8 934.792 121.5C932.692 118.2 931.192 114.3 931.192 110.1C930.892 106.5 931.492 102.9 932.992 99.3C934.792 96 936.892 93.3 939.892 90.6C942.892 88.2 946.192 86.0999 949.792 84.2999L982.792 67.2L1027.19 95.7L1039.19 85.7999L1044.59 92.4L1028.69 105V180.6L1043.09 195L1056.29 186.3ZM991.492 139.8C991.492 130.5 991.492 120.9 991.492 111.6L953.992 88.5C951.892 89.7 949.792 90.6 947.692 92.1C945.292 93.9 943.492 96.2999 941.992 98.7C940.492 101.4 939.592 104.4 939.592 107.4C939.892 111.6 941.392 115.5 944.092 118.5C947.992 123.3 953.092 126.6 958.492 129C963.892 131.7 969.592 133.5 975.292 135.3C980.692 137.1 986.092 138.6 991.492 139.8ZM991.492 148.5C985.492 146.7 979.492 144.9 973.792 143.1C969.892 141.9 965.992 140.7 962.092 139.5C959.692 143.4 958.192 147.6 957.292 152.1C955.792 161.1 957.892 170.7 962.092 178.8C964.192 182.7 966.892 186 969.892 189C973.192 191.7 977.092 194.1 981.592 194.7C984.892 195.3 988.192 195.3 991.492 194.1C991.492 178.8 991.492 163.8 991.492 148.5Z" fill="#FDC3AE" fill-opacity="0.35"/>
<path d="M912.135 185.1L917.835 193.5L873.135 223.8L842.835 196.5L853.035 186.3V112.5L831.435 93.9001L818.535 104.1V186.3L831.435 198L802.635 223.8L768.135 196.5L779.835 186.3V106.8L768.135 93.9001L756.735 101.1L752.535 95.1001L794.235 66.6001L817.335 92.4001L850.035 66.6001L884.235 95.7001L896.835 85.5001L902.235 91.8001L887.535 103.8V182.1L900.435 193.5L912.135 185.1Z" fill="#FDC3AE" fill-opacity="0.35"/>
<path d="M745.471 185.1L752.671 190.8L709.471 220.8L680.671 195L670.771 202.2L666.271 196.5L685.171 183.6V104.4L674.971 91.5L663.571 98.7L659.371 93L699.571 65.7L722.371 93V183.6L732.571 193.5L745.471 185.1ZM675.571 25.2L704.071 0L729.871 29.1L701.071 54.3L675.571 25.2Z" fill="#FDC3AE" fill-opacity="0.35"/>
<path d="M521.784 186.3L531.084 178.5V108.3C531.084 106.2 531.084 104.1 530.784 102C530.184 99.9001 529.584 97.8001 528.384 96.0001C527.184 94.2001 525.384 93.0001 523.284 92.1001C521.484 91.2001 519.384 90.9001 517.284 91.5001C516.384 91.5001 515.484 91.8001 514.584 92.1001C511.884 93.0001 509.784 94.5001 507.684 96.0001L504.684 91.8001L543.384 66.9001C546.084 68.1001 549.084 69.3001 551.484 71.1001C555.384 74.1001 558.684 77.4001 561.384 81.3001C563.484 84.6001 564.984 87.9001 565.884 91.8001C566.784 95.4001 567.084 99.0001 567.084 102.9V174.9L585.684 192.9L600.084 182.4C600.084 180.6 600.084 178.8 600.084 177V167.7V106.2L584.484 92.4001L612.684 66.3L632.484 83.7001L642.984 76.5001L647.484 82.2001L634.584 92.1001V163.8V176.4C634.584 181.2 634.884 186 636.984 190.2C638.484 192.9 640.284 195.3 642.684 196.8L653.784 187.8L659.484 195.3L623.484 219.9C618.684 219.3 613.884 217.2 610.284 213.9C605.484 209.4 602.484 203.1 601.284 196.8C600.984 194.7 600.684 192.9 600.384 190.8L562.584 220.5L521.784 186.3Z" fill="#FDC3AE" fill-opacity="0.35"/>
<path d="M376.07 102.9L443.57 64.5L488.87 91.8L500.27 84.6L504.77 90.6L484.67 103.5V216C484.67 217.5 484.67 219 484.97 220.5C485.27 222 485.87 223.5 486.77 224.7C487.97 226.5 490.07 228 492.17 228.9C494.27 230.1 496.67 231 499.07 231.9V236.1L450.17 270.6H444.47V195.9L406.67 220.5L376.07 191.7V102.9ZM444.47 186V107.7L412.97 89.4V175.8L430.97 194.7L444.47 186Z" fill="#FDC3AE" fill-opacity="0.35"/>
<path d="M374.847 186.3L376.047 192.3L334.347 220.8L311.547 198L279.747 220.8C267.447 219.3 255.747 213.3 247.947 203.7C242.247 197.1 238.947 188.4 239.547 179.7C239.847 174 241.647 168.6 244.647 163.5C247.647 158.7 251.547 154.5 255.747 150.9C261.747 145.5 268.347 141.3 275.247 137.4C273.747 136.8 272.247 136.2 270.747 135.6C264.147 132.3 257.547 127.8 253.347 121.5C251.247 118.2 249.747 114.3 249.747 110.1C249.447 106.5 250.047 102.9 251.547 99.3C253.347 96 255.447 93.3 258.447 90.6C261.447 88.2 264.747 86.0999 268.347 84.2999L301.347 67.2L345.747 95.7L357.747 85.7999L363.147 92.4L347.247 105V180.6L361.647 195L374.847 186.3ZM310.047 139.8C310.047 130.5 310.047 120.9 310.047 111.6L272.547 88.5C270.447 89.7 268.347 90.6 266.247 92.1C263.847 93.9 262.047 96.2999 260.547 98.7C259.047 101.4 258.147 104.4 258.147 107.4C258.447 111.6 259.947 115.5 262.647 118.5C266.547 123.3 271.647 126.6 277.047 129C282.447 131.7 288.147 133.5 293.847 135.3C299.247 137.1 304.647 138.6 310.047 139.8ZM310.047 148.5C304.047 146.7 298.047 144.9 292.347 143.1C288.447 141.9 284.547 140.7 280.647 139.5C278.247 143.4 276.747 147.6 275.847 152.1C274.347 161.1 276.447 170.7 280.647 178.8C282.747 182.7 285.447 186 288.447 189C291.747 191.7 295.647 194.1 300.147 194.7C303.447 195.3 306.747 195.3 310.047 194.1C310.047 178.8 310.047 163.8 310.047 148.5Z" fill="#FDC3AE" fill-opacity="0.35"/>
<path d="M154 197.1L121 223.8L91.3 198L103.9 186.3V112.5L83.2 93.6001L70 101.4V186.3L82.9 198L54.1 223.8L19.6 196.5L31.3 186.3V106.8L19.6 93.9001L8.2 101.1L4 95.1001L45.7 66.6001L67.6 91.2001L106.9 66.6001L136.9 92.1001L178 66.6001L209.2 93.3001L219.1 85.5001L224.5 91.8001L209.5 104.1V179.4L223.6 193.5L236.5 183.9V195L192.1 223.8L162.4 198L175 186.3V112.5L154.3 93.6001L138.4 103.2V183.3L154 197.1Z" fill="#FDC3AE" fill-opacity="0.35"/>
</svg>
 