<svg width="786" height="246" viewBox="0 0 786 246" fill="none" xmlns="http://www.w3.org/2000/svg">
<path d="M785.078 76.7999C783.878 87.9 781.178 99 776.678 108.9C774.278 114 771.578 118.8 767.978 123.3C765.278 126.6 762.278 129.6 758.978 132.6L784.778 151.5V196.8L725.378 232.8C722.378 227.4 717.578 222.9 711.878 220.8C708.878 219.6 705.878 218.7 702.578 219C699.578 219 696.278 219.9 693.878 221.7C692.078 222.9 690.578 224.7 689.678 226.8C689.078 228.9 689.078 231.3 689.678 233.4C690.278 235.2 691.778 236.7 693.578 237.6L690.578 245.7C683.378 242.7 677.378 237 674.378 229.8C671.078 222.6 671.078 214.5 673.478 207C676.778 196.2 684.878 187.5 692.978 179.4C695.378 177 697.778 174.6 700.178 172.2L677.678 154.2V112.2L739.478 76.2C742.778 81 746.978 84.9 752.078 87.2999C755.078 88.5 758.378 89.3999 761.678 89.3999C765.278 89.3999 768.578 88.2 771.278 86.4C774.278 84 776.078 80.7 776.378 76.7999L776.678 77.1C776.678 77.1 776.678 77.1 776.678 76.7999H785.078ZM729.278 157.8L718.778 167.1C711.878 173.1 705.278 179.1 698.978 185.1C695.978 188.1 692.978 191.1 690.278 194.1C695.378 190.2 701.678 187.8 708.278 187.2C714.878 186.9 721.478 188.1 727.478 191.1C735.578 195 742.178 201.9 746.078 210.3V171.3L729.278 157.8ZM728.678 147.6L750.878 128.4C754.478 125.4 758.078 122.1 761.378 118.2C762.278 117 763.178 115.8 764.078 114.6C760.778 116.1 757.178 117 753.578 117.6C747.278 118.5 740.678 117.6 734.978 114.9C726.578 111.3 719.678 104.1 716.378 95.7V134.7L728.678 147.6Z" fill="#2C2524" fill-opacity="0.25"/>
<path d="M541.727 210.6L536.627 204L550.727 192.6V113.4L622.427 76.2L652.727 122.1V123.6L587.927 163.8V176.7L623.927 201.3L657.227 175.5L661.427 182.7L599.627 232.8L554.927 199.8L541.727 210.6ZM587.927 156.6L619.727 136.5L593.927 99L587.927 102.3V156.6Z" fill="#2C2524" fill-opacity="0.25"/>
<path d="M454.302 207.6L421.302 234.3L391.602 208.5L404.202 196.8V123L383.502 104.1L370.302 111.9V196.8L383.202 208.5L354.402 234.3L319.902 207L331.602 196.8V117.3L319.902 104.4L308.502 111.6L304.302 105.6L346.002 77.1001L367.902 101.7L407.202 77.1001L437.202 102.6L478.302 77.1001L509.502 103.8L519.402 96.0001L524.802 102.3L509.802 114.6V189.9L523.902 204L536.802 194.4V205.5L492.402 234.3L462.702 208.5L475.302 196.8V123L454.602 104.1L438.702 113.7V193.8L454.302 207.6Z" fill="#2C2524" fill-opacity="0.25"/>
<path d="M297.238 195.6L304.438 201.3L261.238 231.3L232.438 205.5L222.538 212.7L218.038 207L236.938 194.1V114.9L226.738 102L215.338 109.2L211.138 103.5L251.338 76.2L274.138 103.5V194.1L284.338 204L297.238 195.6ZM227.338 35.7L255.838 10.5L281.638 39.6L252.838 64.8L227.338 35.7Z" fill="#2C2524" fill-opacity="0.25"/>
<path d="M187.063 194.1L198.463 205.5L207.163 198.3L211.363 204L174.163 230.1L142.363 202.8L130.963 210L126.763 204L146.863 191.1V54.6C146.863 53.1 146.863 51.6 146.263 50.1C145.963 48.6 145.363 47.1 144.763 45.9C143.263 44.1 141.463 42.6 139.363 41.7C136.963 40.5 134.863 39.6 132.463 38.7V34.5L181.363 0H187.063V194.1Z" fill="#2C2524" fill-opacity="0.25"/>
<path d="M113.301 76.7999C112.101 87.9 109.401 99 104.901 108.9C102.501 114 99.8009 118.8 96.2009 123.3C93.5009 126.6 90.5009 129.6 87.2009 132.6L113.001 151.5V196.8L53.6009 232.8C50.6009 227.4 45.8009 222.9 40.1009 220.8C37.1009 219.6 34.1009 218.7 30.8009 219C27.8009 219 24.5009 219.9 22.1009 221.7C20.3009 222.9 18.8009 224.7 17.9009 226.8C17.3009 228.9 17.3009 231.3 17.9009 233.4C18.5009 235.2 20.0009 236.7 21.8009 237.6L18.8009 245.7C11.6009 242.7 5.60088 237 2.60088 229.8C-0.699122 222.6 -0.699122 214.5 1.70088 207C5.00088 196.2 13.1009 187.5 21.2009 179.4C23.6009 177 26.0009 174.6 28.4009 172.2L5.90088 154.2V112.2L67.7009 76.2C71.0009 81 75.2009 84.9 80.3009 87.2999C83.3009 88.5 86.6009 89.3999 89.9009 89.3999C93.5009 89.3999 96.8009 88.2 99.5009 86.4C102.501 84 104.301 80.7 104.601 76.7999L104.901 77.1C104.901 77.1 104.901 77.1 104.901 76.7999H113.301ZM57.5009 157.8L47.0009 167.1C40.1009 173.1 33.5009 179.1 27.2009 185.1C24.2009 188.1 21.2009 191.1 18.5009 194.1C23.6009 190.2 29.9009 187.8 36.5009 187.2C43.1009 186.9 49.7009 188.1 55.7009 191.1C63.8009 195 70.4009 201.9 74.3009 210.3V171.3L57.5009 157.8ZM56.9009 147.6L79.1009 128.4C82.7009 125.4 86.3009 122.1 89.6009 118.2C90.5009 117 91.4009 115.8 92.3009 114.6C89.0009 116.1 85.4009 117 81.8009 117.6C75.5009 118.5 68.9009 117.6 63.2009 114.9C54.8009 111.3 47.9009 104.1 44.6009 95.7V134.7L56.9009 147.6Z" fill="#2C2524" fill-opacity="0.25"/>
</svg>
