<svg width="88" height="88" viewBox="0 0 88 88" fill="none" xmlns="http://www.w3.org/2000/svg">
<path d="M87.9503 22.6719C75.5878 22.5024 65.6193 12.5533 65.4362 0.244141C57.8617 8.88925 44.3872 8.88925 36.8128 0.244141C28.6627 9.54122 14.8088 11.2494 4.63103 4.19507L2.39401 2.64338L3.96385 4.88616C11.0412 15.0178 9.32747 28.8395 0 36.95C8.67337 44.4998 8.67337 57.9304 0 65.4802C12.3625 65.6497 22.331 75.5988 22.5141 87.908C30.0886 79.2628 43.5631 79.2628 51.1375 87.908C59.2876 78.6109 73.1415 76.9027 83.3193 83.957L85.5563 85.5087L84.3789 83.9179C77.1184 74.1383 78.2565 60.5122 87.0476 52.0627L87.9503 51.189C79.2769 43.6392 79.2769 30.2087 87.9503 22.6589V22.6719ZM43.9686 75.9508C26.3079 75.9508 11.9831 61.6857 11.9831 44.0695C11.9831 26.4533 26.2948 12.1882 43.9686 12.1882C61.6424 12.1882 75.941 26.4533 75.941 44.0695C75.941 61.6857 61.6293 75.9508 43.9686 75.9508Z" fill="#F6EFD3"/>
</svg>
