<svg width="99" height="100" viewBox="0 0 99 100" fill="none" xmlns="http://www.w3.org/2000/svg">
<path d="M91.5268 47.2787C87.4578 47.144 81.9875 47.5751 83.9142 47.5751C77.9184 48.0331 73.4721 48.4103 72.1786 48.5854C55.2017 48.8145 55.6194 45.3926 73.7281 25.3196C53.6523 43.4257 50.23 43.8568 50.4725 26.8823C50.6477 25.589 51.0249 21.1433 51.483 15.1483C51.483 17.0748 51.9142 11.6052 51.7794 7.53671C51.6447 3.46821 50.9306 0.800781 49.1386 0.800781C47.3466 0.800781 46.6325 3.46821 46.4977 7.53671C46.363 11.6052 46.7942 17.0748 46.7942 15.1483C47.2523 21.1433 47.6295 25.589 47.8047 26.8823C48.0337 43.8568 44.6114 43.4392 24.5356 25.333C42.6443 45.4061 43.0754 48.8279 26.0851 48.5989C24.7916 48.4238 20.3453 48.0466 14.3495 47.5885C16.2763 47.5885 10.8059 47.1574 6.73685 47.2922C2.66779 47.4269 0 48.1409 0 49.9326C0 51.7244 2.66779 52.4384 6.73685 52.5731C10.8059 52.7078 16.2763 52.2767 14.3495 52.2767C20.3453 51.8187 24.7916 51.4415 26.0851 51.2663C43.062 51.0373 42.6443 54.4592 24.5356 74.5322C44.6114 56.4261 48.0337 55.995 47.8047 72.983C47.6295 74.2763 47.2523 78.722 46.7942 84.717C46.7942 82.7905 46.363 88.26 46.4977 92.3286C46.6325 96.397 47.3466 99.0645 49.1386 99.0645C50.9306 99.0645 51.6447 96.397 51.7794 92.3286C51.9142 88.26 51.483 82.7905 51.483 84.717C51.0249 78.722 50.6477 74.2763 50.4725 72.983C50.2434 56.0084 53.6657 56.4261 73.7281 74.5457C55.6194 54.4726 55.1883 51.0508 72.1786 51.2798C73.4721 51.4549 77.9184 51.8322 83.9142 52.2902C81.9875 52.2902 87.4578 52.7213 91.5268 52.5866C95.5959 52.4519 98.2637 51.7379 98.2637 49.9461C98.2637 48.1544 95.5959 47.4403 91.5268 47.3056V47.2787Z" fill="#F6EFD3"/>
</svg>
