<svg width="99" height="99" viewBox="0 0 99 99" fill="none" xmlns="http://www.w3.org/2000/svg">
<path d="M98.2637 47.802H62.2752L97.5383 40.6135L97.0116 38.0209L59.4961 45.663L94.0637 29.2099L92.9242 26.8192L58.3567 43.2724L87.9425 18.9784L86.2598 16.9321L56.674 41.2261L79.5358 10.525L77.4092 8.94225L54.5508 39.6433L69.3371 4.34305L66.8926 3.3199L52.1063 38.6202L57.9526 0.796799L55.3325 0.392838L49.4863 38.2162L46.0448 0.0981445L43.4081 0.336548L46.8463 38.4546L34.3224 2.28682L31.8183 3.15434L44.3422 39.3188L23.4712 7.23369L21.2519 8.68067L42.1229 40.7625L14.1337 14.6507L12.3252 16.5844L40.3144 42.6995L6.85653 24.0941L5.56803 26.4086L39.0259 45.014L2.07021 35.0143L1.37793 37.5705L38.3336 47.5736L0.0563097 46.7656L0 49.4146L38.2773 50.2192L0.934078 58.6527L1.51705 61.2387L38.8636 52.8052L4.6472 69.9835L5.83633 72.351L40.0494 55.1727L10.9837 80.0825L12.7094 82.0924L41.7752 57.1825L19.5693 88.3571L21.7256 89.8968L43.9348 58.7189L29.8938 94.3238L32.3582 95.2973L46.3992 59.6891L41.3512 97.6283L43.9779 97.9793L49.0259 60.0401L53.269 98.0754L55.9023 97.7807L51.6592 59.7454L64.9449 95.6383L67.4292 94.7211L54.1434 58.8282L75.6868 90.4663L77.8796 88.973L56.3362 57.3349L84.8686 82.854L86.6341 80.8805L58.1017 55.3614L91.9438 73.2582L93.1826 70.9172L59.3405 53.0204L96.4982 62.2387L97.1375 59.6692L59.9797 50.451H98.2637V47.802Z" fill="#F6EFD3"/>
</svg>
