<svg width="94" height="94" viewBox="0 0 94 94" fill="none" xmlns="http://www.w3.org/2000/svg">
<path d="M93.3935 66.0925L69.5506 46.8534L93.2683 27.4586L62.8046 30.7155L65.8602 0.231445L46.6204 24.0735L27.2281 0.359645L30.482 30.8223L0 27.7639L23.8398 47.003L0.125151 66.3978L30.5888 63.1409L27.5333 93.6249L46.77 69.7828L66.1654 93.4967L62.9084 63.034L93.3935 66.0925ZM47.3225 69.3494L43.0735 56.4165L31.2848 63.2263L37.4264 51.0748L24.2733 47.5554L37.2066 43.3065L30.3996 31.5183L42.5484 37.6566L46.0679 24.507L50.32 37.4399L62.1087 30.63L55.9671 42.7815L69.1172 46.3009L56.1838 50.5498L62.9939 62.3381L50.842 56.1998L47.3225 69.3494Z" fill="#F6EFD3"/>
</svg>
