<svg width="99" height="99" viewBox="0 0 99 99" fill="none" xmlns="http://www.w3.org/2000/svg">
<path d="M98.5502 46.7932H76.4274L98.0985 42.3724L97.0105 37.0141L70.6862 42.3792L94.944 30.8278L92.5901 25.8869L68.3392 37.4316L89.0934 20.3849L85.6173 16.1558L64.863 33.2024L80.9026 11.6529L76.5095 8.38864L60.4699 29.9382L70.8436 5.15861L65.7936 3.04404L55.4199 27.8236L59.5256 1.27162L54.113 0.436744L50.0141 26.9819L47.5986 0.231445L42.1449 0.724162L44.5604 27.4746L35.7742 2.09282L30.6011 3.88576L39.3872 29.2675L24.7436 6.74625L20.1521 9.72993L34.7957 32.2512L15.1637 13.9249L11.4275 17.9282L31.0595 36.2545L7.58868 23.1975L4.92682 27.981L28.3977 41.038L2.47025 34.0168L1.04011 39.2998L26.9675 46.321L0.116328 45.753L0 51.2276L26.858 51.7956L0.65691 57.7151L1.86124 63.0528L28.0624 57.1334L4.05779 69.1912L6.51436 74.0842L30.5189 62.0263L10.1274 79.5109L13.6856 83.6716L34.0772 66.187L18.503 88.065L22.9576 91.2403L38.5387 69.3623L28.6919 94.3472L33.783 96.3591L43.6298 71.3674L40.092 97.9946L45.5184 98.72L49.0561 72.086L52.0396 98.7816L57.4796 98.1794L54.4961 71.4837L63.8229 96.6739L68.955 94.7783L59.6351 69.5813L74.7509 91.7878L79.274 88.7083L64.1582 66.5018L84.1803 84.4107L87.8275 80.3321L67.8123 62.4232L91.55 74.9807L94.1092 70.1425L70.3715 57.585L96.4357 64.0519L97.7564 58.7415L71.6853 52.2678H98.5502V46.7932Z" fill="#F6EFD3"/>
</svg>
