<svg width="80" height="81" viewBox="0 0 80 81" fill="none" xmlns="http://www.w3.org/2000/svg">
<path d="M28.9388 0.0981423L0.071228 0.098141L0.0712268 28.9701C0.0712265 34.6741 4.71867 39.3222 10.4218 39.3222L10.4218 40.8028C4.71867 40.8028 0.071226 45.451 0.0712258 51.155L0.0712245 80.0269L28.9388 80.0269C34.6419 80.0269 39.2894 75.3788 39.2894 69.6748L40.7697 69.6748C40.7697 75.3788 45.4172 80.0269 51.1203 80.0269L80 80.0269L80 51.155C80 45.451 75.3526 40.8028 69.6494 40.8028L69.6494 39.3222C75.3526 39.3222 80 34.6741 80 28.9701L80 0.0981445L51.1325 0.0981433C45.4293 0.098143 40.7819 4.74629 40.7819 10.4503L39.3015 10.4503C39.3015 4.74629 34.654 0.0981425 28.9509 0.0981423L28.9388 0.0981423ZM46.0603 40.0747C46.0603 43.4 43.3544 46.1063 40.0296 46.1063C36.7047 46.1063 33.9988 43.4 33.9988 40.0747C33.9988 36.7494 36.7047 34.043 40.0296 34.043C43.3544 34.043 46.0603 36.7494 46.0603 40.0747Z" fill="#F6EFD3"/>
</svg>
