<svg width="111" height="111" viewBox="0 0 111 111" fill="none" xmlns="http://www.w3.org/2000/svg">
<path d="M22.5849 55.405C22.5849 55.185 22.5849 54.9651 22.5849 54.7283H0V56.0648H22.6018C22.6018 55.8448 22.6018 55.6249 22.6018 55.3881L22.5849 55.405Z" fill="#F6EFD3"/>
<path d="M32.6844 31.7373L16.6974 15.7503L16.2237 16.224L15.75 16.6977L31.737 32.6847C32.0416 32.3633 32.363 32.0419 32.6844 31.7373Z" fill="#F6EFD3"/>
<path d="M25.3417 42.2263L4.46553 33.5814L4.21177 34.2074L3.95801 34.8333L24.8342 43.4782C25.0034 43.0552 25.1726 42.6492 25.3417 42.2432V42.2263Z" fill="#F6EFD3"/>
<path d="M55.4049 22.585C55.6248 22.585 55.8448 22.585 56.0816 22.602V0.000183105H54.7451V22.602C54.965 22.602 55.185 22.585 55.4218 22.585H55.4049Z" fill="#F6EFD3"/>
<path d="M85.9587 43.4612L106.835 34.8164L106.327 33.5814L85.4512 42.2263C85.6373 42.6323 85.8064 43.0552 85.9587 43.4612Z" fill="#F6EFD3"/>
<path d="M68.5663 25.3426L77.2112 4.46645L76.5852 4.21269L75.9593 3.95892L67.3145 24.8351C67.7374 25.0043 68.1434 25.1735 68.5494 25.3426H68.5663Z" fill="#F6EFD3"/>
<path d="M79.0558 32.6847L95.0428 16.6977L94.0954 15.7503L78.1084 31.7373C78.4298 32.0419 78.7513 32.3633 79.0558 32.6847Z" fill="#F6EFD3"/>
<path d="M43.4609 24.8351L34.816 3.95892L33.5811 4.46645L42.2259 25.3426C42.6319 25.1565 43.0549 24.9874 43.4609 24.8351Z" fill="#F6EFD3"/>
<path d="M24.8342 67.3318L3.95801 75.9766L4.21177 76.6026L4.46553 77.2285L25.3417 68.5837C25.1556 68.1777 24.9865 67.7547 24.8342 67.3487V67.3318Z" fill="#F6EFD3"/>
<path d="M67.332 85.958L75.9769 106.834L76.6028 106.58L77.2288 106.327L68.5839 85.4504C68.1779 85.6365 67.755 85.8057 67.349 85.958H67.332Z" fill="#F6EFD3"/>
<path d="M78.1084 79.0559L94.0954 95.0429L95.0428 94.0956L79.0558 78.1085C78.7513 78.43 78.4298 78.7514 78.1084 79.0559Z" fill="#F6EFD3"/>
<path d="M88.1914 54.7283C88.1914 54.9482 88.2083 55.1681 88.2083 55.405C88.2083 55.6418 88.2083 55.8448 88.1914 56.0817H110.793V54.7452H88.1914V54.7283Z" fill="#F6EFD3"/>
<path d="M85.4512 68.5668L106.327 77.2116L106.835 75.9766L85.9587 67.3318C85.7895 67.7547 85.6203 68.1607 85.4512 68.5668Z" fill="#F6EFD3"/>
<path d="M31.737 78.1085L15.75 94.0956L16.2237 94.5693L16.6974 95.0429L32.6844 79.0559C32.363 78.7514 32.0416 78.43 31.737 78.1085Z" fill="#F6EFD3"/>
<path d="M55.4052 88.208C55.1853 88.208 54.9654 88.208 54.7285 88.1911V110.793H56.065V88.1911C55.8451 88.1911 55.6251 88.208 55.3883 88.208H55.4052Z" fill="#F6EFD3"/>
<path d="M42.2259 85.4504L33.5811 106.327L34.816 106.834L43.4609 85.958C43.0379 85.7888 42.6319 85.6196 42.2259 85.4504Z" fill="#F6EFD3"/>
<path d="M55.4161 15.9417C33.7077 15.9417 16.0938 33.5694 16.0938 55.3399C16.0938 77.1105 33.6874 94.7382 55.4161 94.7382C77.1447 94.7382 94.7384 77.1105 94.7384 55.3399C94.7384 33.5694 77.1447 15.9417 55.4161 15.9417ZM55.4161 82.1267C40.6398 82.1267 28.6607 70.1244 28.6607 55.3196C28.6607 40.5148 40.6398 28.5126 55.4161 28.5126C70.1923 28.5126 82.1714 40.5148 82.1714 55.3196C82.1714 70.1244 70.1923 82.1267 55.4161 82.1267Z" fill="#F6EFD3"/>
</svg>
