<svg width="666" height="232" viewBox="0 0 666 232" fill="none" xmlns="http://www.w3.org/2000/svg">
<path d="M630.194 194.1L644.294 208.2L654.194 202.8L658.394 208.5L617.294 230.1L585.494 202.8L574.094 210L569.894 204L589.994 191.1V117.9C589.994 116.4 589.694 114.9 589.394 113.4C589.094 111.9 588.494 110.7 587.894 109.2C586.394 107.4 584.594 105.9 582.494 105C580.394 103.8 577.994 103.5 575.594 103.5V99.3001L624.494 50.1001H630.194V84.6001H665.894L651.794 101.1H630.194V194.1Z" fill="#2C2524" fill-opacity="0.25"/>
<path d="M432.307 196.8L441.607 189V118.8C441.607 116.7 441.607 114.6 441.307 112.5C440.707 110.4 440.107 108.3 438.907 106.5C437.707 104.7 435.907 103.5 433.807 102.6C432.007 101.7 429.907 101.4 427.807 102C426.907 102 426.007 102.3 425.107 102.6C422.407 103.5 420.307 105 418.207 106.5L415.207 102.3L453.907 77.4001C456.607 78.6001 459.607 79.8001 462.007 81.6001C465.907 84.6001 469.207 87.9001 471.907 91.8001C474.007 95.1001 475.507 98.4001 476.407 102.3C477.307 105.9 477.607 109.5 477.607 113.4V185.4L496.207 203.4L510.607 192.9C510.607 191.1 510.607 189.3 510.607 187.5V178.2V116.7L495.007 102.9L523.207 76.8L543.007 94.2001L553.507 87.0001L558.007 92.7001L545.107 102.6V174.3V186.9C545.107 191.7 545.407 196.5 547.507 200.7C549.007 203.4 550.807 205.8 553.207 207.3L564.307 198.3L570.007 205.8L534.007 230.4C529.207 229.8 524.407 227.7 520.807 224.4C516.007 219.9 513.007 213.6 511.807 207.3C511.507 205.2 511.207 203.4 510.907 201.3L473.107 231L432.307 196.8Z" fill="#2C2524" fill-opacity="0.25"/>
<path d="M331.218 183.9L365.718 207V120.6L331.218 97.7999V183.9ZM282.318 209.7L277.218 203.1L292.518 190.8C292.518 165 292.518 139.2 292.518 113.4L360.018 74.7L403.218 107.7V189.6L336.918 230.1C322.818 219.9 308.718 209.7 294.918 199.5L282.318 209.7Z" fill="#2C2524" fill-opacity="0.25"/>
<path d="M265.293 191.7L197.493 230.1L152.193 202.8L140.793 210L136.593 204L156.693 191.1V54.6C156.693 53.1 156.693 51.6 156.093 50.1C155.793 48.6 155.193 47.1 154.593 45.9C153.093 44.1 151.293 42.6 149.193 41.7C146.793 40.5 144.693 39.6 142.293 38.7V34.5L191.193 0H196.893V98.7L234.693 74.1L265.293 102.6V191.7ZM196.893 108.6V186.6L228.393 205.2V118.5L210.393 99.9L196.893 108.6Z" fill="#2C2524" fill-opacity="0.25"/>
<path d="M135.37 196.8L136.57 202.8L94.8699 231.3L72.0699 208.5L40.2699 231.3C27.9699 229.8 16.2699 223.8 8.46993 214.2C2.76993 207.6 -0.530071 198.9 0.0699291 190.2C0.369929 184.5 2.16993 179.1 5.16993 174C8.16993 169.2 12.0699 165 16.2699 161.4C22.2699 156 28.8699 151.8 35.7699 147.9C34.2699 147.3 32.7699 146.7 31.2699 146.1C24.6699 142.8 18.0699 138.3 13.8699 132C11.7699 128.7 10.2699 124.8 10.2699 120.6C9.96993 117 10.5699 113.4 12.0699 109.8C13.8699 106.5 15.9699 103.8 18.9699 101.1C21.9699 98.7 25.2699 96.5999 28.8699 94.7999L61.8699 77.7L106.27 106.2L118.27 96.2999L123.67 102.9L107.77 115.5V191.1L122.17 205.5L135.37 196.8ZM70.5699 150.3C70.5699 141 70.5699 131.4 70.5699 122.1L33.0699 99C30.9699 100.2 28.8699 101.1 26.7699 102.6C24.3699 104.4 22.5699 106.8 21.0699 109.2C19.5699 111.9 18.6699 114.9 18.6699 117.9C18.9699 122.1 20.4699 126 23.1699 129C27.0699 133.8 32.1699 137.1 37.5699 139.5C42.9699 142.2 48.6699 144 54.3699 145.8C59.7699 147.6 65.1699 149.1 70.5699 150.3ZM70.5699 159C64.5699 157.2 58.5699 155.4 52.8699 153.6C48.9699 152.4 45.0699 151.2 41.1699 150C38.7699 153.9 37.2699 158.1 36.3699 162.6C34.8699 171.6 36.9699 181.2 41.1699 189.3C43.2699 193.2 45.9699 196.5 48.9699 199.5C52.2699 202.2 56.1699 204.6 60.6699 205.2C63.9699 205.8 67.2699 205.8 70.5699 204.6C70.5699 189.3 70.5699 174.3 70.5699 159Z" fill="#2C2524" fill-opacity="0.25"/>
</svg>
