<svg width="821" height="232" viewBox="0 0 821 232" fill="none" xmlns="http://www.w3.org/2000/svg">
<path d="M796.307 194.1L807.707 205.5L816.407 198.3L820.607 204L783.407 230.1L751.607 202.8L740.207 210L736.007 204L756.107 191.1V54.6C756.107 53.1 756.107 51.6 755.507 50.1C755.207 48.6 754.607 47.1 754.007 45.9C752.507 44.1 750.707 42.6 748.607 41.7C746.207 40.5 744.107 39.6 741.707 38.7V34.5L790.607 0H796.307V194.1Z" fill="#F6EFD3" fill-opacity="0.25"/>
<path d="M700.507 194.1L714.607 208.2L724.507 202.8L728.707 208.5L687.607 230.1L655.807 202.8L644.407 210L640.207 204L660.307 191.1V117.9C660.307 116.4 660.007 114.9 659.707 113.4C659.407 111.9 658.807 110.7 658.207 109.2C656.707 107.4 654.907 105.9 652.807 105C650.707 103.8 648.307 103.5 645.907 103.5V99.3001L694.807 50.1001H700.507V84.6001H736.207L722.107 101.1H700.507V194.1Z" fill="#F6EFD3" fill-opacity="0.25"/>
<path d="M556.218 183.9L590.718 207V120.6L556.218 97.7999V183.9ZM507.318 209.7L502.218 203.1L517.518 190.8C517.518 165 517.518 139.2 517.518 113.4L585.018 74.7L628.218 107.7V189.6L561.918 230.1C547.818 219.9 533.718 209.7 519.918 199.5L507.318 209.7Z" fill="#F6EFD3" fill-opacity="0.25"/>
<path d="M478.143 194.1L489.543 205.5L498.243 198.3L502.443 204L465.243 230.1L433.443 202.8L422.043 210L417.843 204L437.943 191.1V54.6C437.943 53.1 437.943 51.6 437.343 50.1C437.043 48.6 436.443 47.1 435.843 45.9C434.343 44.1 432.543 42.6 430.443 41.7C428.043 40.5 425.943 39.6 423.543 38.7V34.5L472.443 0H478.143V194.1Z" fill="#F6EFD3" fill-opacity="0.25"/>
<path d="M333.855 183.9L368.355 207V120.6L333.855 97.7999V183.9ZM284.955 209.7L279.855 203.1L295.155 190.8C295.155 165 295.155 139.2 295.155 113.4L362.655 74.7L405.855 107.7V189.6L339.555 230.1C325.455 219.9 311.355 209.7 297.555 199.5L284.955 209.7Z" fill="#F6EFD3" fill-opacity="0.25"/>
<path d="M134.193 99.3001L172.293 73.8L195.993 87.9001L211.593 120.9L229.293 76.8H236.493C239.193 81.3001 244.293 84.0001 249.393 84.3001C252.093 84.3001 255.093 83.7001 257.493 82.5001C259.893 81.0001 261.993 79.2001 263.493 76.8H272.493C271.593 82.5001 270.693 87.9001 269.193 93.6001C267.993 98.1001 266.493 102.9 263.793 107.1C261.093 111.3 257.493 114.6 252.993 116.7C249.393 118.2 245.493 118.5 241.593 118.5C237.993 118.2 234.093 117.3 230.493 116.1C227.793 115.2 225.093 114 222.393 112.8L215.493 129.9L246.093 195.3C246.993 197.1 247.593 198.6 248.793 199.8C249.993 201 251.493 202.2 253.293 202.5C255.093 202.8 256.893 202.5 258.393 201.9C260.193 201.3 261.693 200.4 262.893 199.5C265.893 197.7 268.893 195.3 271.593 192.9L279.993 200.7L237.693 229.8L208.893 211.2L195.393 181.2L177.393 227.7V227.4L177.093 228H174.093C170.793 223.8 165.993 221.1 161.193 220.5C157.593 219.9 154.293 220.5 150.993 221.7C147.693 223.2 144.993 225.3 142.893 228H136.593C136.893 222.6 137.493 217.2 138.993 212.1C140.193 207.3 142.293 202.2 145.293 198C148.593 193.5 152.793 190.2 157.593 188.1C161.193 186.9 165.093 186.3 168.693 186.3C172.593 186.6 176.493 187.5 180.093 188.7C181.293 189 182.493 189.3 183.693 189.9L191.193 171.3L163.593 109.5C162.693 107.4 161.493 105.3 159.993 103.5C158.193 101.7 156.093 100.8 153.693 100.5C151.293 100.2 148.893 100.8 146.793 101.7C144.393 102.6 142.593 104.1 140.493 105.6C139.893 105.9 139.593 106.2 138.993 106.5L134.193 99.3001Z" fill="#F6EFD3" fill-opacity="0.25"/>
<path d="M135.37 196.8L136.57 202.8L94.8699 231.3L72.0699 208.5L40.2699 231.3C27.9699 229.8 16.2699 223.8 8.46993 214.2C2.76993 207.6 -0.530071 198.9 0.0699291 190.2C0.369929 184.5 2.16993 179.1 5.16993 174C8.16993 169.2 12.0699 165 16.2699 161.4C22.2699 156 28.8699 151.8 35.7699 147.9C34.2699 147.3 32.7699 146.7 31.2699 146.1C24.6699 142.8 18.0699 138.3 13.8699 132C11.7699 128.7 10.2699 124.8 10.2699 120.6C9.96993 117 10.5699 113.4 12.0699 109.8C13.8699 106.5 15.9699 103.8 18.9699 101.1C21.9699 98.7 25.2699 96.5999 28.8699 94.7999L61.8699 77.7L106.27 106.2L118.27 96.2999L123.67 102.9L107.77 115.5V191.1L122.17 205.5L135.37 196.8ZM70.5699 150.3C70.5699 141 70.5699 131.4 70.5699 122.1L33.0699 99C30.9699 100.2 28.8699 101.1 26.7699 102.6C24.3699 104.4 22.5699 106.8 21.0699 109.2C19.5699 111.9 18.6699 114.9 18.6699 117.9C18.9699 122.1 20.4699 126 23.1699 129C27.0699 133.8 32.1699 137.1 37.5699 139.5C42.9699 142.2 48.6699 144 54.3699 145.8C59.7699 147.6 65.1699 149.1 70.5699 150.3ZM70.5699 159C64.5699 157.2 58.5699 155.4 52.8699 153.6C48.9699 152.4 45.0699 151.2 41.1699 150C38.7699 153.9 37.2699 158.1 36.3699 162.6C34.8699 171.6 36.9699 181.2 41.1699 189.3C43.2699 193.2 45.9699 196.5 48.9699 199.5C52.2699 202.2 56.1699 204.6 60.6699 205.2C63.9699 205.8 67.2699 205.8 70.5699 204.6C70.5699 189.3 70.5699 174.3 70.5699 159Z" fill="#F6EFD3" fill-opacity="0.25"/>
</svg>
