<svg width="792" height="285" viewBox="0 0 792 285" fill="none" xmlns="http://www.w3.org/2000/svg">
<path d="M782.824 109.2V188.4C782.824 192.3 782.824 196.2 783.424 200.1C784.024 204 785.224 207.9 787.024 211.2C788.224 213.9 790.024 216.6 790.624 219.3C791.524 222.3 791.524 225.3 790.924 228.3C790.024 231.3 788.224 234 785.824 236.1C783.724 238.2 781.024 239.7 778.324 241.2C775.624 242.4 773.224 244.2 770.824 245.7L715.324 285C709.924 277.2 701.524 271.2 692.224 269.4C681.724 267 670.324 269.7 661.924 276L657.724 273.3C661.024 263.7 667.624 255.6 675.724 249.6C683.824 243.9 693.724 240.3 703.624 240C718.024 239.7 732.424 245.4 742.324 255.9C744.724 255.6 746.524 255 748.324 253.5C750.124 252.3 751.324 250.5 752.224 248.4C753.124 246.6 753.424 244.2 753.424 241.8C753.124 239.7 752.824 237.3 751.924 235.2C750.424 231 748.324 227.1 746.524 222.9C745.024 219.3 743.824 215.4 743.524 211.2C743.224 210.9 743.224 210.9 743.224 210.6L715.024 230.1L672.124 199.8V115.8L661.024 102.6L649.024 110.1L644.824 104.4L685.024 76.8L707.824 104.4V181.2L742.924 203.1C742.924 201.6 742.924 200.4 742.924 199.2L742.624 115.8L726.424 96.6001L755.524 76.8L782.824 109.2Z" fill="#2C2524" fill-opacity="0.25"/>
<path d="M620.749 194.1L632.149 205.5L640.849 198.3L645.049 204L607.849 230.1L576.049 202.8L564.649 210L560.449 204L580.549 191.1V54.6C580.549 53.1 580.549 51.6 579.949 50.1C579.649 48.6 579.049 47.1 578.449 45.9C576.949 44.1 575.149 42.6 573.049 41.7C570.649 40.5 568.549 39.6 566.149 38.7V34.5L615.049 0H620.749V194.1Z" fill="#2C2524" fill-opacity="0.25"/>
<path d="M553.385 195.6L560.585 201.3L517.385 231.3L488.585 205.5L478.685 212.7L474.185 207L493.085 194.1V114.9L482.885 102L471.485 109.2L467.285 103.5L507.485 76.2L530.285 103.5V194.1L540.485 204L553.385 195.6ZM483.485 35.7L511.985 10.5L537.785 39.6L508.985 64.8L483.485 35.7Z" fill="#2C2524" fill-opacity="0.25"/>
<path d="M384.961 207.6L351.961 234.3L322.261 208.5L334.861 196.8V123L314.161 104.1L300.961 111.9V196.8L313.861 208.5L285.061 234.3L250.561 207L262.261 196.8V117.3L250.561 104.4L239.161 111.6L234.961 105.6L276.661 77.1001L298.561 101.7L337.861 77.1001L367.861 102.6L408.961 77.1001L440.161 103.8L450.061 96.0001L455.461 102.3L440.461 114.6V189.9L454.561 204L467.461 194.4V205.5L423.061 234.3L393.361 208.5L405.961 196.8V123L385.261 104.1L369.361 113.7V193.8L384.961 207.6Z" fill="#2C2524" fill-opacity="0.25"/>
<path d="M238.132 196.8L239.332 202.8L197.632 231.3L174.832 208.5L143.032 231.3C130.732 229.8 119.032 223.8 111.232 214.2C105.532 207.6 102.232 198.9 102.832 190.2C103.132 184.5 104.932 179.1 107.932 174C110.932 169.2 114.832 165 119.032 161.4C125.032 156 131.632 151.8 138.532 147.9C137.032 147.3 135.532 146.7 134.032 146.1C127.432 142.8 120.832 138.3 116.632 132C114.532 128.7 113.032 124.8 113.032 120.6C112.732 117 113.332 113.4 114.832 109.8C116.632 106.5 118.732 103.8 121.732 101.1C124.732 98.7 128.032 96.5999 131.632 94.7999L164.632 77.7L209.032 106.2L221.032 96.2999L226.432 102.9L210.532 115.5V191.1L224.932 205.5L238.132 196.8ZM173.332 150.3C173.332 141 173.332 131.4 173.332 122.1L135.832 99C133.732 100.2 131.632 101.1 129.532 102.6C127.132 104.4 125.332 106.8 123.832 109.2C122.332 111.9 121.432 114.9 121.432 117.9C121.732 122.1 123.232 126 125.932 129C129.832 133.8 134.932 137.1 140.332 139.5C145.732 142.2 151.432 144 157.132 145.8C162.532 147.6 167.932 149.1 173.332 150.3ZM173.332 159C167.332 157.2 161.332 155.4 155.632 153.6C151.732 152.4 147.832 151.2 143.932 150C141.532 153.9 140.032 158.1 139.132 162.6C137.632 171.6 139.732 181.2 143.932 189.3C146.032 193.2 148.732 196.5 151.732 199.5C155.032 202.2 158.932 204.6 163.432 205.2C166.732 205.8 170.032 205.8 173.332 204.6C173.332 189.3 173.332 174.3 173.332 159Z" fill="#2C2524" fill-opacity="0.25"/>
<path d="M20.1 191.1V111.6C20.1 110.1 19.8 108.9 19.5 107.4C19.2 105.9 18.6 104.7 18 103.2C16.5 101.4 14.7 99.9 12.6 99C10.5 97.8 8.1 97.5 5.7 97.5V93.3L20.1 78V39.3L86.7 1.5L126.9 26.4L90 47.1L57.3 26.4V44.1V78.6H96L81.9 95.1H57.3V194.1L74.4 208.2L84.3 202.8L88.5 208.5L47.4 230.1L15.6 202.8L4.2 210L0 204L20.1 191.1Z" fill="#2C2524" fill-opacity="0.25"/>
</svg>
