<svg width="281" height="48" viewBox="0 0 281 48" fill="none" xmlns="http://www.w3.org/2000/svg">
<g clip-path="url(#clip0_647_67)">
<path d="M54.545 37.8447L45.611 47.346C45.4162 47.5532 45.181 47.7182 44.9199 47.8307C44.6588 47.9432 44.3773 48.0008 44.093 48H1.72829C1.52629 48 1.32829 47.9413 1.15962 47.8313C1.03298 47.7503 0.925827 47.6422 0.845826 47.5149C0.765825 47.3876 0.714957 47.2442 0.696865 47.095C0.678772 46.9457 0.693902 46.7943 0.741172 46.6515C0.788442 46.5088 0.866682 46.3783 0.970291 46.2693L9.90362 36.7687C10.0983 36.5614 10.3336 36.3964 10.5947 36.2838C10.8558 36.1712 11.1373 36.1134 11.4216 36.114H53.7863C53.9883 36.114 54.1863 36.1727 54.3549 36.2827C54.4816 36.3637 54.5889 36.4717 54.6689 36.5989C54.749 36.7262 54.7999 36.8696 54.8181 37.0189C54.8362 37.1682 54.8212 37.3196 54.7739 37.4623C54.7267 37.6051 54.6485 37.7357 54.545 37.8447ZM45.611 18.7113C45.4162 18.5041 45.181 18.3391 44.9199 18.2266C44.6588 18.1141 44.3773 18.0565 44.093 18.0573H1.72829C1.52629 18.0573 1.32829 18.116 1.15962 18.2253C0.990291 18.3353 0.857624 18.492 0.776958 18.676C0.696305 18.8597 0.67163 19.0632 0.706018 19.2608C0.740407 19.4585 0.832333 19.6416 0.970291 19.7873L9.90362 29.2887C10.0984 29.4958 10.3336 29.6608 10.5947 29.7733C10.8559 29.8858 11.1373 29.9434 11.4216 29.9427H53.7863C53.9883 29.9427 54.1856 29.884 54.3543 29.774C54.523 29.664 54.6556 29.508 54.7363 29.3247C54.817 29.1412 54.8418 28.938 54.8078 28.7405C54.7738 28.543 54.6824 28.3599 54.545 28.214L45.611 18.7113ZM1.73096 11.8867H44.0956C44.3799 11.8865 44.6611 11.8283 44.9221 11.7157C45.1831 11.6032 45.4184 11.4386 45.6136 11.232L54.5476 1.73C54.685 1.58395 54.7765 1.40083 54.8108 1.20331C54.8452 1.00579 54.8209 0.802523 54.741 0.618667C54.6603 0.434667 54.5276 0.278667 54.3583 0.168667C54.1888 0.0585224 53.9911 -7.0136e-05 53.789 6.30045e-08H11.4243C11.1402 0.000204906 10.8592 0.0583024 10.5983 0.170746C10.3374 0.28319 10.1022 0.44762 9.90696 0.654L0.972958 10.1553C0.835741 10.3013 0.744305 10.4843 0.709945 10.6817C0.675586 10.8791 0.69981 11.0822 0.779624 11.266C0.859624 11.4493 0.992291 11.606 1.16096 11.716C1.32896 11.826 1.52629 11.8853 1.72829 11.886H1.73162L1.73096 11.8867Z" fill="#86E4C5"/>
<mask id="mask0_647_67" style="mask-type:luminance" maskUnits="userSpaceOnUse" x="71" y="0" width="210" height="48">
<path d="M280.666 0H71.333V48H280.666V0Z" fill="white"/>
</mask>
<g mask="url(#mask0_647_67)">
<path d="M75.371 11.2933H86.2423V14.8947H71.333V18.7413H86.0643C87.131 18.7399 88.1536 18.3156 88.9079 17.5614C89.6623 16.8072 90.0868 15.7847 90.0883 14.718V11.4713C90.0875 10.4043 89.6632 9.38124 88.9088 8.62668C88.1544 7.87211 87.1314 7.44773 86.0643 7.44667H75.1923V3.84667H90.087V1.52974e-06H75.3683C74.3013 0.000884008 73.2782 0.425102 72.5237 1.17954C71.7691 1.93397 71.3447 2.95698 71.3437 4.024V7.27067C71.3454 8.33787 71.7704 9.3608 72.5254 10.1151C73.2805 10.8693 74.3038 11.2926 75.371 11.2933ZM108.98 1.52974e-06H97.5223C96.4553 0.000707928 95.4322 0.424891 94.6777 1.17938C93.9232 1.93388 93.499 2.95699 93.4983 4.024V14.7173C93.4994 15.7842 93.9237 16.8071 94.6781 17.5616C95.4325 18.316 96.4554 18.7403 97.5223 18.7413H108.98C110.047 18.7403 111.069 18.316 111.824 17.5616C112.578 16.8071 113.003 15.7842 113.004 14.7173V4.024C113.003 2.9571 112.578 1.93419 111.824 1.17977C111.069 0.425356 110.047 0.00106049 108.98 1.52974e-06ZM109.157 3.84667V14.8947H97.3437V3.84667L109.157 3.848V3.84667ZM118.964 18.7427H134.829V14.8947H120.316V1.52974e-06H116.47V16.2467C116.471 16.9081 116.734 17.5421 117.201 18.01C117.669 18.4778 118.303 18.7413 118.964 18.7427ZM154.483 1.52974e-06H141.498C140.633 0.00106005 139.805 0.344863 139.194 0.956002C138.583 1.56714 138.239 2.39572 138.238 3.26V18.7427H142.084V12.632H153.898V18.7427H157.745V3.26067C157.743 2.39614 157.399 1.5675 156.788 0.956311C156.176 0.345122 155.348 0.00123511 154.483 1.52974e-06ZM153.896 3.84667V8.78533H142.083V3.84667H153.896ZM176.812 14.8947H176.097L168.88 1.32333C168.667 0.923334 168.35 0.588766 167.962 0.355603C167.574 0.12244 167.129 -0.000500227 166.676 1.52974e-06H163.65C162.988 0.000883458 162.353 0.264208 161.885 0.732232C161.417 1.20026 161.154 1.83478 161.153 2.49667V18.7433H165V3.84733H165.868L173.082 17.4187C173.294 17.8193 173.611 18.1544 173.999 18.3878C174.388 18.6213 174.832 18.7442 175.286 18.7433H178.164C178.825 18.7426 179.46 18.4795 179.928 18.0115C180.396 17.5436 180.659 16.9092 180.66 16.2473V1.52974e-06H176.813L176.812 14.8947ZM200.629 1.52974e-06H187.644C186.779 0.00106005 185.951 0.344863 185.34 0.956002C184.729 1.56714 184.385 2.39572 184.384 3.26V18.7427H188.231V12.632H200.044V18.7427H203.89V3.26067C203.89 2.39599 203.546 1.56693 202.934 0.955573C202.323 0.344214 201.494 0.000531179 200.629 1.52974e-06ZM200.042 3.84667V8.78533H188.227V3.84667H200.042ZM71.333 47.9987H75.1797V40.5507H89.6937V36.704H75.1797V33.1027H89.6937V29.256H71.333V47.9987ZM108.574 29.256H97.1163C96.049 29.2569 95.0257 29.6813 94.271 30.436C93.5163 31.1907 93.0919 32.214 93.091 33.2813V43.9747C93.0914 45.0418 93.5154 46.0651 94.27 46.8197C95.0246 47.5742 96.0479 47.9983 97.115 47.9987H108.573C109.64 47.9971 110.662 47.5727 111.416 46.8185C112.17 46.0643 112.595 45.0419 112.596 43.9753V33.2813C112.596 32.2144 112.172 31.1914 111.418 30.4367C110.663 29.682 109.641 29.2574 108.574 29.256ZM108.75 33.1027V44.152H96.937V33.1027H108.75ZM131.664 40.92C131.663 41.777 131.323 42.5987 130.716 43.2046C130.11 43.8106 129.289 44.1513 128.432 44.152H123.082C122.226 44.1502 121.405 43.8091 120.799 43.2034C120.194 42.5976 119.853 41.7766 119.851 40.92V29.2553H116.005V41.6827C116.007 43.3568 116.672 44.9619 117.856 46.1458C119.039 47.3298 120.644 47.9959 122.318 47.998H129.193C130.868 47.9966 132.474 47.3309 133.658 46.1469C134.843 44.963 135.509 43.3575 135.512 41.6827V29.256H131.664V40.92ZM154.58 44.152H153.865L146.648 30.58C146.436 30.1795 146.118 29.8446 145.73 29.6112C145.342 29.3779 144.897 29.2551 144.444 29.256H141.415C140.753 29.2567 140.119 29.52 139.651 29.9881C139.183 30.4562 138.92 31.0908 138.919 31.7527V47.9993H142.765V33.1033H143.633L150.847 46.6747C151.059 47.0752 151.377 47.4103 151.765 47.6438C152.154 47.8773 152.598 48.0005 153.052 48H155.928C156.59 47.9996 157.225 47.7366 157.693 47.2686C158.162 46.8007 158.425 46.166 158.426 45.504V29.256H154.579L154.58 44.152ZM175.023 29.256H161.833V47.9987H175.023C176.698 47.998 178.304 47.3325 179.489 46.1484C180.674 44.9643 181.34 43.3584 181.342 41.6833V35.5733C181.34 33.8981 180.674 32.2918 179.489 31.1074C178.305 29.923 176.698 29.2567 175.023 29.256ZM165.68 33.1027H174.26C175.117 33.1039 175.939 33.445 176.545 34.0511C177.151 34.6572 177.492 35.4789 177.493 36.336V40.92C177.491 41.7768 177.15 42.5981 176.544 43.2038C175.938 43.8096 175.117 44.1506 174.26 44.152H165.68V33.1027ZM200.998 29.256H188.01C187.145 29.2565 186.316 29.6002 185.705 30.2114C185.094 30.8227 184.75 31.6516 184.75 32.516V47.9987H188.596V41.888H200.41V47.9987H204.256V32.5173C204.256 31.6529 203.913 30.824 203.302 30.2126C202.691 29.6011 201.862 29.2571 200.998 29.256ZM200.411 33.1027V38.0413H188.598V33.1027H200.411ZM207.666 33.1027H215.114V47.9987H218.961V33.1027H226.409V29.256H207.666V33.1027ZM233.854 29.256H230.008V47.9987H233.854V29.256ZM253.157 29.256H241.7C240.632 29.2569 239.609 29.6813 238.854 30.436C238.1 31.1907 237.675 32.214 237.674 33.2813V43.9747C237.675 45.0418 238.099 46.0651 238.853 46.8197C239.608 47.5742 240.631 47.9983 241.698 47.9987H253.156C254.223 47.9971 255.245 47.5727 255.999 46.8185C256.754 46.0643 257.178 45.0419 257.18 43.9753V33.2813C257.179 32.2144 256.755 31.1914 256.001 30.4367C255.247 29.682 254.224 29.2574 253.157 29.256ZM253.334 33.1027V44.152H241.52V33.1027H253.334ZM276.248 29.256V44.1507H275.533L268.316 30.5807C268.104 30.18 267.787 29.8449 267.398 29.6114C267.01 29.378 266.565 29.2551 266.112 29.256H263.083C262.421 29.2564 261.786 29.5195 261.318 29.9877C260.85 30.4558 260.587 31.0907 260.587 31.7527V47.9993H264.433V33.1033H265.302L272.515 46.6747C272.727 47.075 273.045 47.4099 273.433 47.6434C273.822 47.8769 274.266 48.0002 274.72 48H277.597C278.259 47.9991 278.893 47.7359 279.361 47.268C279.829 46.8001 280.093 46.1658 280.094 45.504V29.256H276.248Z" fill="#86E4C5"/>
</g>
</g>
<defs>
<clipPath id="clip0_647_67">
<rect width="280.667" height="48" fill="white"/>
</clipPath>
</defs>
</svg>
