<svg width="204" height="48" viewBox="0 0 204 48" fill="none" xmlns="http://www.w3.org/2000/svg">
<g id="sphere-logo 1">
<g id="Group">
<path id="Vector" style="mix-blend-mode:multiply" d="M23.5067 2.7998C11.7932 2.7998 2.26562 12.3274 2.26562 24.0408C2.26562 35.7544 11.7932 45.282 23.5067 45.282C35.2201 45.282 44.7477 35.7544 44.7477 24.0408C44.7477 12.3274 35.2201 2.7998 23.5067 2.7998Z" fill="#86E4C5"/>
<path id="Vector_2" d="M5.36359 30.6446C6.46041 33.6608 10.3803 35.2636 15.513 35.2636C18.9038 35.2636 22.8238 34.5646 26.8132 33.1124C36.8352 29.4666 43.4816 22.4456 41.655 17.4365H41.6588C38.9592 10.0214 31.8532 4.73047 23.5074 4.73047C12.8443 4.73047 4.19727 13.3775 4.19727 24.0406C4.19727 26.3616 4.60665 28.5862 5.35587 30.6446H5.35973H5.36359Z" fill="#86E4C5"/>
<path id="Vector_3" d="M40.0752 27.1139C37.0706 30.2885 32.5946 33.0653 27.4696 34.9269C23.3952 36.4099 19.259 37.1937 15.509 37.1937C12.6782 37.1937 10.2374 36.7459 8.2832 35.9155C11.8169 40.4379 17.3203 43.3499 23.5034 43.3499C34.1664 43.3499 42.8134 34.7029 42.8134 24.0397C42.8134 23.8081 42.8056 23.5763 42.794 23.3447C42.1568 24.5997 41.2492 25.8627 40.0714 27.1101L40.0752 27.1139Z" fill="#86E4C5"/>
</g>
<path id="Vector_4" d="M60.8394 31.6537L64.4456 27.9301C65.7086 30.6553 68.1412 31.4737 71.2074 31.4737C73.8654 31.4737 75.3538 30.6553 75.3538 29.4299C75.3538 28.3843 74.1376 27.7501 70.846 27.0687C63.812 25.6591 61.4688 23.4823 61.4688 19.7115C61.4688 15.9407 64.939 12.397 71.6114 12.397C76.7954 12.397 79.5896 13.9396 81.6648 17.2133L77.8332 20.4827C76.5276 18.1217 74.7244 16.9391 71.7008 16.9391C69.1746 16.9391 67.6436 17.9375 67.6436 19.1201C67.6436 20.3029 68.7706 21.1169 72.5556 21.8925C79.1388 23.2081 81.5712 25.2091 81.5712 28.9799C81.5712 33.0677 78.0118 36.0201 71.2924 36.0201C66.6486 36.0201 62.9062 34.7475 60.835 31.6581L60.8394 31.6537Z" fill="#86E4C5"/>
<path id="Vector_5" d="M135.143 20.6584V35.5572H128.968V22.4752C128.968 18.5673 127.301 17.2989 124.958 17.2989C122.342 17.2989 119.774 19.0258 119.774 23.5678V35.5572H113.599V2.90137H119.774V16.7076C121.215 13.8024 123.831 12.3926 127.033 12.3926C131.719 12.3926 135.147 15.165 135.147 20.6584H135.143Z" fill="#86E4C5"/>
<path id="Vector_6" d="M160.774 26.5631H144.813C145.443 29.8327 147.429 31.3795 150.448 31.3795C153.063 31.3795 154.777 30.3811 155.407 28.5643L160.455 30.4283C159.013 34.0619 155.543 36.0159 150.448 36.0159C142.963 36.0159 138.728 31.6537 138.728 24.2065C138.728 16.7591 142.831 12.397 150.087 12.397C157.342 12.397 160.952 16.6648 160.952 24.1165C160.952 24.7507 160.863 25.9805 160.774 26.5675V26.5631ZM144.771 22.2011H155.275C154.777 18.7945 152.885 16.9776 150.044 16.9776C147.203 16.9776 145.264 18.7473 144.771 22.2011Z" fill="#86E4C5"/>
<path id="Vector_7" d="M179.791 12.8939L179.026 18.3444C178.396 17.9373 177.359 17.6631 176.185 17.6631C173.48 17.6631 170.776 19.6599 170.776 23.7948V35.5614H164.601V12.8468H169.968V17.2989C171.141 14.1666 173.842 12.3926 177.359 12.3926C178.35 12.3926 179.251 12.5725 179.791 12.8939Z" fill="#86E4C5"/>
<path id="Vector_8" d="M202.922 26.5631H186.962C187.591 29.8327 189.577 31.3795 192.596 31.3795C195.212 31.3795 196.926 30.3811 197.555 28.5643L202.604 30.4283C201.162 34.0619 197.691 36.0159 192.596 36.0159C185.112 36.0159 180.876 31.6537 180.876 24.2065C180.876 16.7591 184.98 12.397 192.235 12.397C199.49 12.397 203.1 16.6648 203.1 24.1165C203.1 24.7507 203.012 25.9805 202.922 26.5675V26.5631ZM186.919 22.2011H197.423C196.926 18.7945 195.033 16.9776 192.192 16.9776C189.352 16.9776 187.412 18.7473 186.919 22.2011Z" fill="#86E4C5"/>
<path id="Vector_9" d="M109.894 24.1592C109.894 31.6064 104.923 36.0156 98.9735 36.0156C95.6395 36.0156 92.7773 34.336 91.4717 31.7906V45.0998H85.2969V12.8468H91.4717V16.7333C92.7349 13.828 95.3673 12.3926 98.9735 12.3926C104.97 12.3926 109.894 16.7547 109.894 24.1592ZM104.098 24.2062C104.098 19.5742 100.84 17.1661 97.5489 17.1661C94.2573 17.1661 91.4675 19.5742 91.4675 23.9792V24.4334C91.4675 28.7484 94.2999 31.2464 97.5489 31.2464C100.798 31.2464 104.098 28.8384 104.098 24.2062Z" fill="#86E4C5"/>
</g>
</svg>
